<?xml version="1.0" standalone="no"?>
<!DOCTYPE svg PUBLIC "-//W3C//DTD SVG 20010904//EN"
 "http://www.w3.org/TR/2001/REC-SVG-20010904/DTD/svg10.dtd">
<svg version="1.0" xmlns="http://www.w3.org/2000/svg"
 width="1345.000000pt" height="1345.000000pt" viewBox="0 0 1345.000000 1345.000000"
 preserveAspectRatio="xMidYMid meet">
<metadata>
Created by potrace 1.14, written by Peter Selinger 2001-2017
</metadata>
<g transform="translate(0.000000,1345.000000) scale(0.100000,-0.100000)"
fill="#000000" stroke="none">
<path d="M7617 13444 c-1 -1 -33 -5 -70 -8 -38 -3 -94 -10 -125 -15 -31 -6
-73 -13 -92 -16 -19 -3 -55 -11 -80 -16 -25 -6 -52 -12 -60 -14 -17 -3 -209
-55 -425 -115 -144 -39 -353 -87 -385 -88 -8 0 -25 -3 -36 -5 -32 -8 -234 -18
-364 -18 -63 -1 -252 -1 -420 -1 -168 1 -334 -1 -370 -3 -88 -4 -190 -13 -226
-19 -51 -8 -108 -17 -139 -21 -35 -5 -70 -13 -70 -15 0 -1 -12 -3 -26 -5 -78
-10 -281 -82 -379 -133 -71 -37 -132 -73 -140 -82 -3 -3 -25 -19 -50 -35 -135
-91 -357 -295 -450 -415 -19 -25 -44 -55 -55 -68 -11 -13 -64 -85 -117 -160
-54 -75 -102 -142 -108 -149 -5 -7 -10 -14 -10 -16 0 -2 -59 -91 -130 -197
-72 -106 -130 -196 -130 -201 0 -4 -3 -9 -7 -11 -8 -3 -58 -75 -79 -113 -72
-132 -132 -278 -159 -385 -21 -86 -35 -152 -40 -185 -3 -22 -8 -51 -11 -65
-13 -55 -12 -241 2 -300 16 -70 54 -149 91 -191 67 -74 193 -133 330 -152 124
-18 352 -12 485 13 28 6 53 8 56 5 3 -3 11 0 19 6 7 6 13 9 13 6 0 -2 30 2 68
9 37 8 78 16 92 18 14 3 57 12 95 21 95 22 96 23 133 34 17 5 32 7 32 4 0 -3
6 0 13 6 8 6 17 8 20 4 4 -3 13 0 22 7 8 7 15 10 15 7 0 -3 34 5 75 18 41 12
75 21 75 18 0 -3 7 0 15 7 8 7 15 10 15 7 0 -4 18 0 40 8 22 8 41 14 43 14 1
0 9 2 17 4 8 3 47 14 85 26 39 11 165 50 280 86 116 37 218 68 228 70 9 2 22
7 27 10 6 4 38 15 73 25 34 10 123 37 197 60 348 108 515 153 700 186 47 9
108 17 135 19 28 2 50 5 50 5 0 9 517 13 610 6 28 -3 86 -7 130 -10 44 -4 98
-9 120 -12 22 -2 58 -7 80 -10 22 -2 51 -7 65 -9 14 -2 45 -7 70 -10 25 -4 63
-10 85 -15 22 -5 56 -12 75 -15 46 -8 241 -55 260 -63 8 -3 20 -6 25 -7 24 -3
158 -51 245 -88 240 -103 366 -205 442 -358 81 -164 81 -221 -1 -261 -37 -18
-63 -22 -137 -23 -85 0 -96 3 -165 37 -79 40 -170 108 -334 253 -146 128 -350
275 -383 275 -7 0 -12 3 -12 8 0 7 -51 32 -120 57 -19 7 -44 16 -55 21 -11 4
-24 8 -30 9 -5 2 -28 7 -50 13 -78 21 -142 26 -320 26 -205 0 -268 -5 -460
-39 -44 -8 -93 -17 -110 -20 -16 -2 -40 -7 -52 -10 -13 -3 -33 -7 -45 -10 -13
-3 -61 -14 -108 -26 -47 -11 -93 -22 -103 -24 -25 -5 -393 -104 -447 -120
-110 -33 -161 -47 -177 -50 -10 -2 -18 -4 -18 -5 0 -1 -7 -3 -15 -5 -8 -1 -82
-21 -165 -43 -213 -57 -232 -61 -257 -64 -10 -1 -18 -6 -18 -11 0 -4 -3 -6 -8
-3 -4 2 -34 -2 -67 -9 -33 -8 -71 -16 -85 -19 -14 -2 -63 -11 -110 -20 -47 -8
-110 -18 -140 -21 -30 -4 -66 -8 -80 -10 -24 -4 -148 -11 -331 -20 -46 -3
-180 -7 -297 -10 -603 -14 -829 -56 -983 -182 -87 -71 -181 -241 -219 -397
-31 -126 -31 -326 0 -506 5 -30 12 -71 15 -90 4 -19 8 -48 10 -65 7 -74 38
-214 58 -260 55 -133 187 -288 302 -357 85 -51 199 -86 338 -104 15 -2 45 -6
67 -9 98 -15 327 -7 455 16 141 25 438 114 473 141 6 6 12 7 12 4 0 -4 10 -1
23 6 12 6 27 13 32 14 11 2 181 77 293 130 41 19 75 34 77 34 1 0 29 12 61 27
33 15 61 27 64 28 6 2 35 14 95 40 60 25 198 76 218 80 9 2 22 7 28 11 12 7
170 53 209 60 14 2 36 7 50 10 27 6 34 8 125 23 112 19 209 23 530 27 176 1
347 5 380 8 33 3 94 8 135 11 41 4 93 8 115 10 22 3 63 6 90 9 28 3 84 8 125
11 41 3 95 8 120 11 196 19 605 25 730 11 147 -17 174 -22 286 -52 195 -53
354 -141 497 -274 55 -52 183 -208 368 -452 67 -87 138 -207 145 -243 2 -6 7
-24 11 -41 23 -76 -8 -208 -63 -274 -34 -40 -103 -67 -169 -65 -101 2 -191 32
-430 144 -80 37 -524 219 -550 225 -5 1 -17 5 -25 8 -19 8 -99 29 -125 33 -11
2 -38 8 -60 13 -22 5 -58 12 -80 16 -63 11 -414 14 -421 4 -3 -5 -9 -7 -14 -4
-13 8 -192 -31 -280 -61 -141 -48 -348 -157 -442 -234 -88 -70 -88 -70 -120
-57 -82 35 -101 175 -41 297 77 156 250 276 410 286 55 3 87 -2 143 -23 36
-14 60 -17 130 -17 64 0 83 4 120 26 97 57 142 125 121 181 -46 121 -467 191
-976 162 -136 -8 -200 -12 -200 -15 0 -1 -11 -3 -25 -6 -235 -40 -392 -144
-571 -379 -38 -49 -73 -94 -77 -100 -4 -5 -25 -36 -46 -69 -54 -82 -107 -185
-141 -276 -1 -3 -5 -12 -8 -20 -10 -23 -55 -191 -61 -225 -2 -16 -9 -55 -15
-85 -6 -30 -13 -66 -16 -80 -3 -13 -7 -42 -11 -65 -3 -22 -10 -60 -16 -85 -5
-25 -12 -58 -15 -75 -17 -109 -221 -747 -428 -1340 -100 -287 -112 -339 -111
-462 1 -100 3 -113 33 -176 52 -110 172 -213 338 -291 202 -95 355 -111 480
-50 59 29 92 58 160 139 27 33 73 85 102 115 29 30 70 78 91 106 112 149 172
202 314 278 196 105 278 120 382 71 97 -46 149 -132 120 -200 -27 -65 -114
-59 -289 22 -82 38 -112 46 -168 49 -90 4 -161 -28 -209 -95 -77 -107 -54
-263 75 -511 27 -52 58 -107 68 -122 11 -14 19 -29 19 -33 0 -3 21 -38 46 -78
73 -113 74 -115 76 -140 2 -28 -35 -83 -62 -92 -11 -4 -20 -10 -20 -14 0 -5
-25 -16 -56 -26 -75 -24 -130 -16 -251 36 -118 50 -161 56 -250 35 -37 -9 -79
-18 -93 -20 -14 -2 -59 -11 -100 -20 -41 -8 -91 -18 -110 -21 -19 -3 -46 -7
-60 -10 -14 -2 -41 -7 -60 -9 -19 -3 -44 -7 -55 -10 -18 -3 -59 -10 -140 -22
-16 -3 -37 -7 -45 -9 -23 -7 -154 -16 -265 -19 -91 -2 -144 -15 -146 -34 0 -4
-2 -15 -4 -24 -5 -25 72 -98 138 -131 88 -44 151 -40 307 18 111 42 134 47
205 47 44 0 179 -1 300 -1 121 0 234 1 250 3 17 1 57 -3 90 -10 63 -14 69 -16
125 -34 127 -42 273 -25 408 47 122 65 147 78 157 80 5 1 32 6 59 11 92 19
393 2 516 -28 19 -5 48 -11 63 -14 15 -3 69 -17 120 -31 93 -27 146 -29 261
-11 37 6 34 2 -75 -82 -147 -114 -222 -164 -306 -206 -94 -47 -307 -119 -477
-161 -78 -19 -167 -45 -198 -59 -109 -48 -188 -60 -388 -60 -170 0 -206 9
-360 83 -156 76 -233 74 -310 -8 -37 -39 -112 -88 -188 -123 -37 -17 -96 -44
-132 -60 -98 -45 -155 -84 -186 -129 -15 -23 -29 -46 -30 -53 -2 -6 -7 -31
-11 -56 -10 -50 -9 -150 3 -220 4 -25 9 -52 9 -60 1 -8 5 -25 9 -37 4 -12 9
-31 11 -42 3 -12 7 -29 9 -39 12 -54 63 -187 98 -255 50 -95 105 -152 194
-197 173 -88 291 -190 434 -376 144 -186 224 -223 474 -219 82 1 191 24 221
45 13 10 109 31 140 31 44 1 176 -10 183 -15 5 -3 31 -8 58 -11 27 -3 60 -7
74 -10 14 -3 45 -8 70 -11 25 -3 63 -10 84 -14 65 -14 323 -5 391 14 69 19
174 68 225 105 71 52 181 157 287 275 29 32 51 52 48 44 -2 -7 -6 -24 -9 -38
-2 -14 -11 -54 -20 -90 -8 -36 -18 -81 -21 -100 -20 -118 -37 -161 -98 -256
-35 -55 -67 -106 -70 -114 -4 -8 -23 -42 -42 -75 -131 -224 -189 -429 -150
-539 28 -79 111 -134 219 -143 34 -3 62 -6 64 -8 2 -1 5 -15 8 -31 2 -16 7
-40 10 -54 3 -14 8 -36 10 -50 10 -55 46 -173 74 -241 75 -180 188 -318 304
-370 157 -69 362 -28 589 117 37 24 72 44 76 44 5 0 11 3 13 8 2 4 26 24 54
45 98 71 152 147 156 220 4 76 -37 157 -108 213 -20 16 -42 34 -48 39 -24 22
-160 88 -239 115 -185 63 -406 88 -547 60 -30 -6 -71 -13 -90 -16 -19 -2 -46
-7 -60 -9 -14 -3 -50 -8 -81 -11 l-55 -6 -4 48 c-12 172 0 499 25 657 4 23 8
53 10 67 13 98 20 117 69 189 78 113 228 326 401 567 100 139 153 213 183 259
15 22 29 42 32 45 4 3 22 27 41 55 18 27 40 56 47 63 6 7 12 17 12 21 0 4 8
17 18 29 22 26 157 227 241 357 168 262 307 515 385 698 43 102 104 284 112
335 3 19 8 44 10 56 5 23 11 104 19 261 3 55 7 114 10 130 2 17 6 55 9 85 6
55 13 98 21 135 2 11 7 43 11 70 3 28 8 53 10 56 1 3 6 28 10 55 3 27 8 52 10
55 2 3 6 21 9 39 8 44 59 280 85 395 11 50 23 101 26 115 3 14 10 43 16 65 5
22 12 51 15 65 2 14 11 52 20 85 8 33 17 69 19 80 8 41 13 62 32 145 12 47 24
101 28 120 4 19 9 40 10 45 1 6 10 51 19 100 9 50 19 98 21 109 4 21 14 102
19 161 6 61 6 225 1 270 -13 104 -18 128 -40 206 -14 46 -30 98 -37 114 -7 17
-13 32 -13 35 -1 3 -11 30 -23 60 -23 56 -38 97 -44 115 -1 6 -8 29 -15 52
-20 65 -10 194 19 266 13 30 24 33 52 14 26 -17 145 -65 182 -72 154 -31 212
-26 328 30 169 81 294 225 379 435 14 33 22 60 19 60 -3 0 -1 6 5 13 6 7 13
24 16 37 2 14 11 54 20 90 34 145 39 199 40 435 1 248 -7 338 -39 438 -46 147
-142 301 -258 417 l-75 75 56 60 c97 105 139 228 137 400 -2 123 -21 221 -71
375 -51 157 -131 371 -170 458 -13 29 -24 55 -24 59 0 11 -94 219 -154 338
-78 157 -204 376 -258 450 -4 6 -47 64 -96 130 -223 302 -534 640 -762 825
-30 25 -61 51 -69 58 -35 33 -181 139 -291 211 -102 67 -334 191 -415 222 -65
25 -228 68 -280 75 -11 1 -45 5 -75 9 -50 7 -278 14 -283 9z m266 -78 c42 -4
112 -16 155 -27 42 -11 86 -21 97 -24 49 -11 189 -71 281 -120 116 -60 297
-173 302 -186 2 -5 8 -9 13 -9 10 0 223 -164 263 -202 12 -11 43 -39 70 -61
169 -145 383 -378 630 -687 6 -8 46 -62 87 -120 218 -302 420 -715 598 -1219
120 -338 138 -466 97 -661 -12 -54 -68 -148 -114 -192 l-49 -46 -29 23 c-16
14 -34 24 -41 25 -6 0 -13 4 -15 8 -1 4 -30 24 -63 44 -251 150 -540 240 -751
233 -154 -5 -225 -56 -226 -164 0 -29 5 -58 11 -65 6 -7 8 -15 6 -18 -3 -3 16
-28 42 -55 65 -67 195 -126 328 -148 11 -2 47 -9 80 -14 105 -18 240 -33 305
-33 103 -1 239 25 300 57 41 21 50 19 95 -23 35 -33 122 -128 143 -157 69 -95
140 -246 158 -340 25 -129 25 -581 -1 -675 -4 -15 -12 -54 -21 -104 -14 -77
-79 -241 -127 -323 -75 -126 -227 -253 -339 -284 -72 -19 -174 -12 -242 16
-20 8 -36 13 -36 10 0 -3 -31 11 -70 30 -38 19 -70 39 -70 43 0 4 7 27 16 52
21 60 24 116 8 168 -27 92 -84 122 -226 119 -107 -2 -134 -15 -144 -70 -10
-60 81 -182 203 -269 35 -26 43 -36 38 -53 -62 -187 -57 -310 20 -490 23 -53
37 -90 34 -90 -1 0 8 -19 20 -42 12 -24 19 -43 17 -43 -3 0 2 -19 10 -42 9
-24 17 -53 20 -66 2 -12 6 -34 10 -50 10 -47 13 -346 3 -398 -5 -27 -11 -67
-14 -89 -5 -43 -8 -62 -32 -175 -8 -41 -17 -84 -19 -95 -2 -11 -7 -33 -10 -49
-2 -16 -8 -34 -11 -40 -4 -5 -8 -22 -10 -38 -1 -15 -18 -91 -37 -170 -19 -79
-40 -165 -46 -193 -7 -27 -14 -58 -16 -67 -9 -39 -14 -64 -20 -92 -2 -16 -7
-32 -9 -36 -2 -3 -6 -17 -8 -31 -3 -13 -21 -98 -40 -189 -20 -91 -39 -181 -42
-200 -3 -19 -8 -42 -10 -50 -2 -8 -7 -37 -11 -65 -3 -27 -8 -53 -10 -56 -1 -3
-6 -28 -9 -55 -4 -27 -11 -76 -16 -109 -12 -76 -16 -116 -24 -240 -11 -185
-15 -240 -20 -270 -12 -69 -38 -171 -48 -183 -5 -6 -7 -12 -4 -12 21 0 -167
-408 -263 -569 -27 -46 -50 -88 -50 -93 0 -4 -4 -8 -10 -8 -5 0 -10 -5 -10
-10 0 -11 -150 -251 -235 -375 -77 -113 -129 -189 -138 -200 -4 -5 -74 -104
-156 -220 -276 -388 -296 -416 -308 -430 -7 -7 -13 -16 -13 -19 0 -3 -38 -58
-85 -122 -46 -64 -86 -122 -88 -128 -2 -6 -7 -8 -10 -5 -7 5 67 311 80 332 4
7 43 53 88 102 45 50 90 101 100 114 11 13 27 31 36 40 36 37 169 209 169 219
0 6 3 12 8 14 20 9 98 146 135 238 53 131 75 240 81 410 3 99 -11 149 -47 170
-24 13 -29 13 -59 -5 -18 -10 -37 -24 -43 -30 -93 -101 -222 -349 -347 -670
-50 -128 -166 -471 -171 -506 -2 -10 -6 -22 -10 -25 -4 -4 -7 -15 -7 -24 0 -9
-10 -25 -22 -37 -13 -11 -63 -64 -113 -119 -182 -200 -284 -287 -395 -337 -98
-44 -148 -52 -315 -51 -130 1 -182 6 -279 25 -28 6 -60 12 -71 13 -11 2 -40 7
-65 10 -185 29 -245 24 -410 -31 -57 -20 -96 -26 -165 -26 -227 -2 -282 25
-421 208 -59 77 -167 192 -230 245 -42 36 -128 90 -206 129 -72 37 -125 82
-148 127 -8 16 -18 31 -21 34 -6 5 -73 169 -74 180 0 3 -3 10 -6 15 -11 18
-50 197 -56 254 -12 125 -5 196 23 239 34 52 46 59 293 173 86 40 173 98 224
151 43 44 83 40 219 -20 143 -64 190 -79 253 -85 28 -3 50 -6 50 -7 0 -7 202
2 310 14 49 6 134 30 180 51 46 22 120 45 155 50 8 1 35 8 60 15 25 6 56 14
69 17 13 2 32 8 43 14 10 5 18 7 18 5 0 -3 19 2 43 10 23 9 49 17 57 19 8 2
16 4 18 5 1 2 5 3 10 5 4 1 14 4 22 8 8 3 40 14 70 25 140 51 232 106 434 261
76 58 129 91 145 92 14 0 49 0 76 0 97 0 149 36 147 101 -2 72 -75 80 -292 33
-14 -3 -38 -8 -55 -12 -38 -8 -154 -9 -180 -1 -33 10 -110 32 -115 33 -3 0
-23 5 -45 10 -22 5 -42 9 -45 10 -11 3 -96 18 -115 21 -11 1 -20 3 -20 4 0 5
-101 11 -248 14 -212 5 -242 -2 -409 -96 -43 -25 -115 -53 -163 -65 -51 -12
-145 -3 -224 22 -46 15 -93 29 -105 31 -11 3 -187 5 -391 5 l-370 1 -108 -41
c-139 -54 -183 -62 -236 -44 -36 12 -121 61 -110 64 2 0 49 2 104 4 55 2 138
9 185 15 47 7 94 14 105 15 33 5 208 34 231 39 12 2 39 7 60 10 38 6 60 10
114 22 14 3 34 6 45 8 11 2 47 9 80 16 33 7 65 13 70 14 6 1 15 5 21 8 22 14
111 -1 174 -30 132 -60 197 -74 265 -59 22 5 45 10 50 11 53 11 147 87 176
141 32 60 26 77 -100 285 -249 410 -280 609 -104 676 53 21 98 14 189 -26 115
-52 128 -57 170 -69 145 -39 247 20 247 144 0 93 -74 186 -187 235 -103 44
-200 29 -376 -57 -183 -90 -245 -141 -387 -319 -155 -195 -294 -334 -356 -356
-101 -36 -239 -12 -412 74 -142 71 -234 150 -283 243 -22 43 -26 63 -26 140 0
133 6 159 124 495 62 178 191 561 196 583 1 4 2 9 3 12 0 3 1 6 0 8 0 1 9 27
21 57 12 30 23 62 25 71 2 9 22 71 45 138 23 67 43 128 44 134 2 7 6 19 9 27
8 20 36 121 42 149 2 11 6 25 9 29 2 4 7 27 11 52 4 25 8 47 10 51 2 3 7 21
10 40 3 19 8 45 10 59 3 14 7 41 10 60 3 19 7 46 10 60 6 26 22 108 29 150 3
14 5 26 5 28 1 1 1 3 1 5 0 15 54 190 78 250 32 82 129 254 156 277 9 7 16 17
16 22 0 5 5 14 10 21 6 7 33 41 61 77 134 173 298 298 428 326 63 13 197 32
203 28 4 -2 9 -1 12 4 5 9 520 8 616 -1 71 -7 234 -35 263 -46 12 -5 27 -10
32 -11 52 -13 96 -47 88 -68 -15 -39 -98 -91 -159 -99 -18 -3 -68 5 -111 17
-149 42 -232 37 -360 -21 -74 -33 -122 -67 -184 -130 -51 -51 -109 -131 -109
-149 0 -6 -6 -21 -14 -33 -24 -37 -34 -126 -23 -196 12 -71 52 -132 105 -160
17 -9 20 -16 13 -25 -5 -6 -13 -27 -16 -46 -9 -57 -15 -70 -52 -119 -57 -74
-72 -133 -48 -185 19 -39 55 -61 97 -58 42 3 75 23 129 75 l46 45 135 -3 c154
-4 207 -10 293 -30 127 -29 333 -103 438 -156 20 -10 37 -16 37 -14 0 3 17 -3
38 -14 99 -50 210 -64 299 -38 112 34 165 66 260 158 44 44 58 52 96 54 140
10 236 82 242 181 2 26 -1 60 -7 76 -15 42 -87 108 -154 143 -33 16 -94 49
-137 72 -73 39 -234 112 -260 118 -7 1 -19 4 -27 7 -86 31 -145 40 -305 44
-96 2 -165 -1 -220 -12 -80 -15 -254 -65 -310 -90 -108 -47 -279 -107 -355
-123 l-45 -10 25 20 c59 47 72 56 160 103 151 80 264 123 414 156 150 33 473
33 584 1 18 -5 35 -10 37 -10 22 -1 88 -16 125 -28 25 -8 52 -16 60 -18 30 -7
468 -188 558 -230 51 -24 94 -44 95 -44 1 0 27 -11 57 -24 257 -114 447 -93
536 59 107 182 73 357 -116 605 -174 228 -279 358 -347 429 -202 212 -481 338
-838 377 -136 15 -586 8 -775 -12 -19 -2 -71 -6 -115 -10 -44 -4 -93 -8 -110
-10 -16 -1 -68 -6 -115 -9 -47 -4 -105 -9 -130 -11 -25 -2 -83 -7 -130 -10
-47 -4 -86 -8 -88 -10 -2 -2 -17 1 -33 5 -16 5 -29 5 -29 1 0 -4 -118 -8 -262
-8 -277 0 -388 -5 -478 -23 -30 -6 -68 -13 -83 -16 -219 -38 -448 -120 -877
-312 -271 -121 -340 -149 -480 -198 -88 -30 -240 -70 -300 -80 -14 -2 -52 -8
-85 -13 -72 -11 -368 -11 -410 0 -16 4 -51 10 -76 13 -26 4 -67 12 -93 20 -25
8 -46 12 -46 10 0 -2 -20 5 -45 16 -167 72 -324 257 -368 436 -8 32 -18 82
-23 109 -4 28 -8 57 -9 65 -19 118 -35 227 -41 275 -7 66 -7 245 1 285 3 14 8
41 11 60 7 41 43 141 55 155 5 5 9 17 9 27 0 10 3 18 8 18 4 0 16 19 27 42 11
24 47 70 80 103 46 47 76 68 130 89 39 16 77 29 85 31 8 2 35 8 60 13 25 6 65
13 90 17 25 3 56 8 70 11 23 4 59 7 285 19 44 2 179 7 300 10 121 3 252 8 290
10 136 8 260 16 298 21 20 2 55 6 77 9 22 2 66 9 98 14 31 6 72 13 90 16 53 9
174 36 353 79 9 2 69 19 135 36 65 18 124 33 129 35 6 1 30 7 55 14 25 8 50
14 55 16 6 1 17 5 25 8 17 7 237 67 260 71 8 2 22 6 30 9 8 3 26 8 40 11 14 4
106 27 205 52 99 25 187 48 195 49 156 33 282 57 314 61 23 2 52 6 66 9 120
26 510 26 580 1 8 -3 29 -7 45 -9 40 -6 145 -47 225 -87 70 -35 183 -108 188
-122 2 -4 9 -8 15 -8 8 0 115 -86 137 -110 3 -3 17 -15 32 -26 29 -23 133
-112 153 -131 36 -35 155 -118 208 -145 72 -36 99 -42 192 -43 93 0 148 10
196 37 103 58 109 164 19 342 -45 89 -64 116 -132 184 -135 136 -423 268 -758
347 -79 19 -185 41 -240 50 -25 4 -52 9 -60 10 -8 2 -35 6 -60 9 -25 3 -54 8
-65 10 -18 3 -54 7 -200 22 -261 26 -747 20 -915 -11 -14 -3 -41 -7 -60 -10
-19 -3 -64 -13 -100 -21 -36 -9 -72 -17 -80 -19 -48 -10 -162 -42 -280 -77
-74 -22 -142 -42 -150 -43 -8 -2 -179 -56 -380 -120 -319 -101 -776 -240 -820
-250 -8 -1 -35 -8 -60 -15 -25 -7 -52 -14 -60 -15 -8 -2 -71 -17 -140 -34
-386 -93 -702 -118 -895 -71 -156 39 -253 129 -290 270 -21 81 -9 266 28 435
28 122 94 313 127 365 5 8 16 29 24 47 18 39 127 207 138 211 4 2 8 7 8 12 0
10 217 334 331 495 183 257 346 433 534 576 141 107 320 211 405 234 3 1 39
12 80 25 41 12 84 24 95 26 11 2 40 8 65 14 66 17 80 20 130 25 25 2 61 7 82
10 94 15 155 17 638 20 479 3 658 8 720 19 14 3 43 7 65 10 22 3 52 8 68 11
15 3 37 7 50 9 12 2 51 12 87 21 36 9 74 19 85 21 11 2 43 10 70 18 122 36
201 58 215 62 8 2 49 12 90 23 95 26 297 72 330 76 14 2 39 5 55 8 17 3 59 9
95 12 36 4 66 7 67 8 4 5 196 -1 266 -7z m1687 -3301 c14 -3 36 -7 50 -10 20
-4 142 -39 205 -59 75 -24 261 -117 354 -177 75 -48 74 -50 -42 -79 -73 -18
-269 -21 -367 -6 -372 58 -511 128 -510 254 1 45 28 68 95 79 17 3 32 6 34 8
4 5 148 -3 181 -10z m92 -1909 c29 -13 50 -56 50 -105 1 -49 -28 -132 -40
-116 -4 6 -23 22 -42 36 -96 72 -170 165 -148 187 11 11 152 10 180 -2z
m-1967 -359 c28 -5 107 -24 130 -31 123 -38 455 -208 504 -258 17 -17 32 -41
33 -52 0 -12 2 -28 3 -36 2 -27 -37 -72 -80 -91 -36 -16 -65 -21 -153 -28 -7
-1 -46 -31 -87 -68 -94 -88 -94 -88 -147 -112 -139 -63 -191 -57 -468 61 -159
67 -337 126 -430 142 -19 3 -46 8 -60 11 -14 3 -99 7 -189 10 -182 5 -191 3
-251 -60 -19 -20 -47 -42 -62 -49 -24 -12 -29 -12 -45 6 -10 11 -18 21 -17 22
1 0 10 20 22 42 12 23 33 55 47 72 14 17 28 39 30 49 18 75 25 95 41 115 11
13 30 23 44 23 68 -1 268 52 375 99 124 56 328 120 420 132 28 3 52 8 54 9 5
5 250 -2 286 -8z m111 -3710 c8 -8 6 -8 -53 -12 -39 -2 -58 8 -33 17 18 6 79
3 86 -5z m768 -666 c-7 -128 -16 -191 -36 -266 -5 -22 -12 -47 -13 -56 -20
-101 -192 -375 -330 -525 -5 -6 -32 -37 -59 -68 -27 -31 -51 -54 -54 -52 -10
11 142 436 208 581 92 202 183 376 201 383 5 2 9 8 9 13 0 11 13 28 45 60 18
18 20 18 26 2 3 -9 4 -42 3 -72z m-767 -1848 c-3 -5 -8 -37 -12 -73 -4 -36 -9
-81 -11 -100 -8 -72 -12 -437 -5 -487 l7 -52 -53 3 c-61 5 -119 31 -146 68
-45 60 -20 209 63 383 33 68 123 227 143 253 10 13 21 17 14 5z m648 -748 c17
-4 39 -8 50 -10 78 -10 222 -61 308 -108 171 -95 228 -183 182 -281 -35 -73
-203 -196 -385 -282 -302 -143 -501 -56 -649 283 -28 66 -57 153 -67 202 -3
13 -11 53 -18 88 -8 35 -11 65 -7 67 4 3 36 8 71 12 80 8 105 12 105 14 0 2 5
3 85 15 25 4 47 9 49 11 6 6 242 -4 276 -11z"/>
</g>
</svg>
